<?xml version="1.0" encoding="utf-8"?>
<!-- Generator: Adobe Illustrator 17.0.0, SVG Export Plug-In . SVG Version: 6.00 Build 0)  -->
<!DOCTYPE svg PUBLIC "-//W3C//DTD SVG 1.1//EN" "http://www.w3.org/Graphics/SVG/1.1/DTD/svg11.dtd">
<svg version="1.1" id="Calque_1" xmlns="http://www.w3.org/2000/svg" xmlns:xlink="http://www.w3.org/1999/xlink" x="0px" y="0px"
	 width="250px" height="69px" viewBox="0 0 250 69" enable-background="new 0 0 250 69" xml:space="preserve">
<g>
	<path fill="#42964B" d="M64.617,25.383c-5.531,0.681-11.141,1.029-16.671,1.029c-13.769,0-27.29-2.095-40.25-6.235
		c13.754,6.777,29.098,10.34,44.658,10.34h0.002c4.246,0,8.55-0.265,12.799-0.79c20.05-2.476,38.432-10.493,53.435-23.26
		C102.389,16.492,83.826,23.01,64.617,25.383"/>
	<path fill="#646363" d="M72.218,20.433V4.953h-4.476c-3.05,0-5.531,2.482-5.531,5.532v11.493c0.314-0.036,0.628-0.07,0.941-0.109
		C66.193,21.495,69.216,21.015,72.218,20.433"/>
	<path fill="#646363" d="M41.195,11.98h-4.479c-3.05,0-5.53,2.48-5.53,5.53v4.142c3.313,0.457,6.651,0.787,10.009,0.991V11.98z"/>
	<path fill="#646363" d="M56.708,22.611V8.467h-4.481c-3.049,0-5.53,2.481-5.53,5.53v8.889c0.416,0.005,0.831,0.011,1.249,0.011
		C50.852,22.898,53.78,22.802,56.708,22.611"/>
	<path fill="#646363" d="M20.96,56.646c-0.184,0-0.326,0.143-0.326,0.328v6.714c0,0.186,0.141,0.326,0.326,0.326h0.154
		c0.174,0,0.328-0.139,0.328-0.326v-6.714c0-0.185-0.154-0.328-0.328-0.328H20.96z"/>
	<path fill="#646363" d="M28.837,58.816c-0.566,0-0.74,0.512-1.089,0.512c-0.154,0-0.251-0.131-0.405-0.253
		c-0.152-0.119-0.368-0.259-0.674-0.259h-0.153c-0.577,0-0.795,0.512-1.003,0.512c-0.065,0-0.131-0.056-0.164-0.131l-0.098-0.196
		c-0.03-0.054-0.096-0.153-0.208-0.153h-0.141c-0.207,0-0.292,0.132-0.292,0.274v4.565c0,0.186,0.141,0.326,0.327,0.326h0.152
		c0.175,0,0.327-0.14,0.327-0.326v-3.544c0-0.303,0.239-0.565,0.578-0.565h0.37c0.306,0,0.567,0.261,0.567,0.578v3.531
		c0,0.186,0.141,0.326,0.327,0.326h0.151c0.176,0,0.326-0.14,0.326-0.326v-3.544c0-0.314,0.262-0.565,0.579-0.565h0.37
		c0.285,0,0.567,0.251,0.567,0.565v3.544c0,0.186,0.143,0.326,0.329,0.326h0.153c0.173,0,0.327-0.14,0.327-0.326v-3.674
		c0-0.666-0.382-1.198-1.048-1.198H28.837z"/>
	<g>
		<path fill="#646363" d="M38.528,58.817c-0.566,0-0.742,0.511-1.09,0.511c-0.153,0-0.249-0.129-0.403-0.251
			c-0.153-0.119-0.371-0.26-0.675-0.26h-0.154c-0.577,0-0.795,0.511-1.001,0.511c-0.066,0-0.13-0.055-0.165-0.129l-0.097-0.196
			c-0.034-0.054-0.098-0.155-0.209-0.155h-0.141c-0.209,0-0.295,0.132-0.295,0.275v4.566c0,0.186,0.143,0.326,0.328,0.326h0.151
			c0.175,0,0.328-0.139,0.328-0.326v-3.544c0-0.303,0.239-0.565,0.577-0.565h0.37c0.307,0,0.567,0.261,0.567,0.578v3.531
			c0,0.186,0.142,0.326,0.326,0.326H37.1c0.175,0,0.326-0.139,0.326-0.326v-3.544c0-0.314,0.263-0.565,0.579-0.565h0.37
			c0.284,0,0.567,0.25,0.567,0.565v3.544c0,0.186,0.142,0.326,0.328,0.326h0.153c0.174,0,0.327-0.139,0.327-0.326v-3.673
			c0-0.667-0.381-1.199-1.045-1.199H38.528z"/>
	</g>
	<path fill="#646363" d="M44.063,62.685v-2.508c0-0.325,0.261-0.598,0.599-0.598h0.655c0.327,0,0.587,0.273,0.587,0.598v2.508
		c0,0.336-0.26,0.599-0.596,0.599h-0.656C44.323,63.284,44.063,63.02,44.063,62.685 M44.508,58.847c-0.674,0-1.251,0.536-1.251,1.2
		v2.747c0,0.664,0.533,1.22,1.21,1.22h1.034c0.677,0,1.209-0.556,1.209-1.22v-2.747c0-0.664-0.576-1.2-1.254-1.2H44.508z"/>
	<path fill="#646363" d="M51.026,62.597v-2.332c0-0.381,0.304-0.686,0.685-0.686h0.468c0.384,0,0.687,0.305,0.687,0.686v2.332
		c0,0.382-0.303,0.687-0.687,0.687h-0.468C51.331,63.284,51.026,62.979,51.026,62.597 M50.546,56.646
		c-0.186,0-0.327,0.143-0.327,0.328v6.77c0,0.13,0.097,0.27,0.251,0.27h0.161c0.11,0,0.197-0.075,0.241-0.153l0.098-0.186
		c0.022-0.031,0.056-0.107,0.174-0.107c0.274,0,0.503,0.479,1.156,0.479h0.164c0.666,0,1.21-0.567,1.21-1.232v-2.76
		c0-0.716-0.544-1.24-1.21-1.24h-0.164c-0.61,0-0.872,0.511-1.145,0.511c-0.098,0-0.13-0.075-0.13-0.183v-2.17
		c0-0.185-0.154-0.328-0.327-0.328H50.546z"/>
	<path fill="#646363" d="M57.793,58.847c-0.187,0-0.327,0.145-0.327,0.33v4.511c0,0.186,0.139,0.326,0.327,0.326h0.151
		c0.176,0,0.327-0.139,0.327-0.326v-4.511c0-0.186-0.151-0.33-0.327-0.33H57.793z M57.793,56.646c-0.187,0-0.327,0.143-0.327,0.328
		v0.598c0,0.186,0.139,0.328,0.327,0.328h0.151c0.176,0,0.327-0.142,0.327-0.328v-0.598c0-0.185-0.151-0.328-0.327-0.328H57.793z"/>
	<path fill="#646363" d="M62.675,56.646c-0.187,0-0.327,0.143-0.327,0.328v6.714c0,0.186,0.14,0.326,0.327,0.326h0.152
		c0.174,0,0.326-0.139,0.326-0.326v-6.714c0-0.185-0.152-0.328-0.326-0.328H62.675z"/>
	<path fill="#646363" d="M67.555,58.847c-0.186,0-0.325,0.145-0.325,0.33v4.511c0,0.186,0.139,0.326,0.325,0.326h0.154
		c0.173,0,0.327-0.139,0.327-0.326v-4.511c0-0.186-0.154-0.33-0.327-0.33H67.555z M67.555,56.646c-0.186,0-0.325,0.143-0.325,0.328
		v0.598c0,0.186,0.139,0.328,0.325,0.328h0.154c0.173,0,0.327-0.142,0.327-0.328v-0.598c0-0.185-0.154-0.328-0.327-0.328H67.555z"/>
	<path fill="#646363" d="M72.634,60.167c0-0.338,0.273-0.588,0.587-0.588h0.667c0.315,0,0.587,0.25,0.587,0.588v0.917h-1.84V60.167z
		 M73.08,58.847c-0.676,0-1.253,0.538-1.253,1.2v2.726c0,0.674,0.556,1.241,1.189,1.241h1.449c0.184,0,0.327-0.12,0.327-0.303
		v-0.121c0-0.184-0.143-0.306-0.327-0.306h-1.123c-0.479,0-0.707-0.263-0.707-0.666v-0.86h2.014c0.338,0,0.634-0.186,0.634-0.654
		v-1.057c0-0.663-0.589-1.2-1.256-1.2H73.08z M72.828,56.757L72.72,56.91c-0.044,0.064-0.054,0.139-0.054,0.205
		c0,0.099,0.042,0.198,0.141,0.25l1.44,0.817c0.076,0.043,0.207,0.023,0.261-0.055l0.078-0.108c0.021-0.021,0.021-0.045,0.021-0.067
		c0-0.064-0.021-0.13-0.078-0.172l-1.243-1.1c-0.049-0.045-0.112-0.066-0.178-0.066C73.001,56.615,72.891,56.668,72.828,56.757"/>
	<path fill="#646363" d="M80.664,58.847c-0.61,0-0.861,0.48-1.134,0.48c-0.098,0-0.164-0.055-0.195-0.129l-0.1-0.196
		c-0.031-0.054-0.097-0.155-0.205-0.155h-0.145c-0.206,0-0.292,0.132-0.292,0.275v4.567c0,0.184,0.142,0.325,0.325,0.325h0.157
		c0.173,0,0.326-0.141,0.326-0.325v-3.412c0-0.459,0.327-0.699,0.653-0.699h1.189c0.183,0,0.326-0.119,0.326-0.306v-0.12
		c0-0.184-0.142-0.306-0.326-0.306H80.664z"/>
	<path fill="#646363" d="M85.176,60.167c0-0.338,0.271-0.588,0.589-0.588h0.664c0.313,0,0.587,0.251,0.587,0.588v0.917h-1.841
		V60.167z M85.621,58.847c-0.674,0-1.253,0.536-1.253,1.2v2.726c0,0.674,0.557,1.241,1.189,1.241h1.449
		c0.184,0,0.328-0.12,0.328-0.303v-0.121c0-0.184-0.143-0.306-0.328-0.306h-1.124c-0.478,0-0.707-0.263-0.707-0.666v-0.86h2.015
		c0.338,0,0.634-0.186,0.634-0.654v-1.057c0-0.664-0.591-1.2-1.255-1.2H85.621z"/>
	<path fill="#646363" d="M48.825,50.345h-4.88V33.733h-2.318c-0.918,0-1.664,0.745-1.664,1.664v18.619h8.862
		c0.948,0,1.664-0.668,1.664-1.551v-0.568C50.489,51.011,49.772,50.345,48.825,50.345"/>
	<path fill="#646363" d="M27.145,33.902l-0.087-0.002l-0.014,0.004c-2.871,0.06-6.332,2.625-6.332,5.603
		c0,2.225-0.082,13.42-0.078,12.846c0,0.946,0.669,1.663,1.551,1.663h0.568c0.885,0,1.552-0.717,1.552-1.663v-2.877h5.667v2.877
		c0,0.946,0.669,1.663,1.552,1.663h0.568c0.885,0,1.551-0.717,1.551-1.669c0.004,0.58-0.078-10.614-0.078-12.84
		C33.564,36.501,30.035,33.912,27.145,33.902 M29.971,40.087v5.816h-5.667v-5.816c0.166-1.445,1.379-2.535,2.834-2.538
		C28.594,37.553,29.807,38.642,29.971,40.087"/>
	<path fill="#646363" d="M60.275,50.211c-1.281-0.267-2.443-0.914-3.359-1.875c-1.154-1.214-1.79-2.796-1.79-4.464
		c0-1.665,0.636-3.25,1.79-4.464c0.918-0.962,2.079-1.612,3.363-1.877c0.372-0.078,0.778-0.122,1.188-0.13h4.13v-2.12
		c0-0.219-0.045-0.43-0.13-0.624c-0.255-0.573-0.842-0.927-1.533-0.927h-2.359c-1.318,0.004-2.602,0.259-3.815,0.757
		c-3.826,1.569-6.298,5.253-6.298,9.385c0,4.131,2.469,7.815,6.294,9.384c0.376,0.155,0.78,0.29,1.2,0.405
		c0.62,0.167,1.256,0.275,1.9,0.321v0.033h3.759c0.891,0,1.587-0.598,1.655-1.427c0.005-0.041,0.01-0.081,0.01-0.124v-2.12h-4.777
		C61.078,50.338,60.666,50.292,60.275,50.211"/>
	<path fill="#646363" d="M81.528,34.487c-0.207-0.083-0.417-0.161-0.632-0.232c-1.031-0.345-2.102-0.52-3.18-0.522h-0.335
		c-1.082,0.002-2.153,0.177-3.184,0.522c-0.213,0.072-0.426,0.149-0.632,0.233c-3.824,1.569-6.298,5.253-6.298,9.385
		c0,4.028,2.389,7.674,6.088,9.29l0.07,0.033c0.044,0.02,0.089,0.043,0.135,0.061c0.377,0.155,0.781,0.29,1.201,0.405
		c0.62,0.167,1.256,0.275,1.901,0.321v0.033h1.242l0.526-0.006v-0.027c0.643-0.046,1.28-0.154,1.899-0.321
		c0.422-0.115,0.824-0.251,1.202-0.405c0.046-0.018,0.091-0.041,0.136-0.062l0.07-0.031c3.697-1.616,6.087-5.262,6.087-9.29
		C87.826,39.74,85.353,36.056,81.528,34.487 M84.161,43.873c0,1.667-0.636,3.25-1.791,4.464c-0.916,0.961-2.078,1.608-3.356,1.875
		c-0.392,0.081-0.805,0.126-1.221,0.133H77.31c-0.423-0.007-0.838-0.052-1.228-0.133c-1.281-0.267-2.442-0.914-3.358-1.875
		c-1.154-1.214-1.79-2.796-1.79-4.464c0-1.665,0.636-3.25,1.79-4.464c0.917-0.962,2.079-1.612,3.362-1.877
		c0.374-0.078,0.776-0.122,1.194-0.13h0.528c0.421,0.008,0.823,0.052,1.2,0.13c1.282,0.265,2.444,0.915,3.361,1.879
		C83.524,40.623,84.161,42.208,84.161,43.873"/>
</g>
<g>
	<path fill="#42964B" d="M212.066,37.198c11.837,2.219,22.25,6.315,30.238,12.065c-7.052-7.593-17.658-13.521-30.238-16.718V37.198z
		"/>
	<path fill="#42964B" d="M169.192,32.545c-12.58,3.197-23.186,9.125-30.238,16.718c7.992-5.752,18.401-9.849,30.238-12.068V32.545z"
		/>
	<path fill="#646363" d="M180.611,41l-8.977,7.193V17.815c0-2.966,2.426-5.359,5.392-5.318l3.585,0.049V41z"/>
	<path fill="#646363" d="M195.152,5.032v36.133l-8.977,7.193v-38.14c0-2.943,2.416-5.314,5.359-5.256L195.152,5.032z"/>
	<path fill="#646363" d="M209.624,41l-8.977,7.193V18.288c0-3.173,2.573-5.744,5.745-5.743l3.232,0.001V41z"/>
	<path fill="#646363" d="M175.412,50.991v3.46h-0.34c-0.201-0.798-0.424-1.372-0.669-1.721c-0.246-0.348-0.582-0.626-1.009-0.834
		c-0.239-0.113-0.657-0.17-1.253-0.17h-0.952v9.862c0,0.653,0.036,1.062,0.108,1.225c0.072,0.164,0.214,0.306,0.425,0.43
		c0.21,0.122,0.498,0.183,0.863,0.183h0.424v0.349h-6.694v-0.349h0.425c0.371,0,0.669-0.066,0.896-0.198
		c0.163-0.088,0.292-0.239,0.386-0.453c0.069-0.151,0.103-0.547,0.103-1.188v-9.862h-0.923c-0.862,0-1.487,0.183-1.876,0.547
		c-0.547,0.509-0.892,1.235-1.037,2.178h-0.359v-3.46H175.412z"/>
	<path fill="#646363" d="M178.986,54.96v1.998c0.584-0.911,1.097-1.516,1.537-1.814c0.44-0.299,0.864-0.448,1.272-0.448
		c0.352,0,0.633,0.108,0.844,0.325c0.21,0.216,0.316,0.523,0.316,0.919c0,0.421-0.103,0.748-0.306,0.981
		c-0.204,0.233-0.451,0.348-0.74,0.348c-0.334,0-0.622-0.106-0.868-0.32c-0.245-0.214-0.39-0.333-0.434-0.359
		c-0.063-0.038-0.135-0.057-0.216-0.057c-0.183,0-0.355,0.07-0.519,0.208c-0.258,0.214-0.453,0.519-0.584,0.915
		c-0.202,0.609-0.302,1.283-0.302,2.018v2.027l0.009,0.528c0,0.358,0.022,0.588,0.066,0.688c0.075,0.17,0.187,0.294,0.334,0.373
		c0.147,0.078,0.398,0.127,0.75,0.146v0.339h-4.761v-0.339c0.384-0.032,0.643-0.137,0.778-0.316
		c0.135-0.179,0.202-0.652,0.202-1.419v-4.874c0-0.503-0.025-0.824-0.075-0.962c-0.063-0.176-0.154-0.305-0.273-0.387
		c-0.12-0.081-0.33-0.138-0.632-0.17V54.96H178.986z"/>
	<path fill="#646363" d="M187.706,54.697c0.767,0,1.481,0.198,2.14,0.594c0.66,0.396,1.161,0.959,1.504,1.687
		c0.342,0.729,0.514,1.527,0.514,2.395c0,1.25-0.318,2.297-0.952,3.139c-0.767,1.018-1.826,1.527-3.177,1.527
		c-1.327,0-2.347-0.465-3.064-1.395c-0.716-0.93-1.075-2.008-1.075-3.234c0-1.263,0.367-2.365,1.099-3.304
		C185.427,55.166,186.431,54.697,187.706,54.697 M187.744,55.366c-0.321,0-0.595,0.121-0.825,0.363
		c-0.23,0.242-0.381,0.72-0.453,1.433c-0.072,0.714-0.109,1.705-0.109,2.974c0,0.673,0.044,1.302,0.132,1.886
		c0.07,0.446,0.217,0.785,0.443,1.018c0.227,0.233,0.484,0.349,0.773,0.349c0.283,0,0.519-0.078,0.708-0.236
		c0.245-0.213,0.408-0.512,0.49-0.896c0.126-0.597,0.189-1.803,0.189-3.62c0-1.068-0.06-1.802-0.179-2.201
		c-0.119-0.399-0.296-0.69-0.528-0.872C188.222,55.431,188.008,55.366,187.744,55.366"/>
	<path fill="#646363" d="M196.644,54.961v6.986c0,0.622,0.072,1.02,0.217,1.193c0.144,0.173,0.427,0.272,0.848,0.297v0.34h-4.761
		v-0.34c0.39-0.012,0.678-0.125,0.867-0.339c0.126-0.145,0.189-0.528,0.189-1.151v-5.148c0-0.622-0.072-1.019-0.217-1.193
		c-0.145-0.173-0.424-0.272-0.839-0.297v-0.348H196.644z M195.324,50.689c0.409,0,0.754,0.143,1.037,0.429
		c0.283,0.286,0.424,0.63,0.424,1.032c0,0.402-0.143,0.745-0.429,1.028c-0.286,0.283-0.63,0.425-1.032,0.425
		c-0.403,0-0.745-0.142-1.028-0.425c-0.283-0.283-0.424-0.625-0.424-1.028c0-0.402,0.141-0.746,0.424-1.032
		C194.58,50.832,194.922,50.689,195.324,50.689"/>
	<path fill="#646363" d="M204.14,54.715l0.141,3.008h-0.321c-0.384-0.892-0.781-1.502-1.193-1.829
		c-0.412-0.327-0.822-0.49-1.23-0.49c-0.258,0-0.478,0.087-0.66,0.26c-0.183,0.173-0.274,0.372-0.274,0.599
		c0,0.169,0.063,0.333,0.189,0.49c0.201,0.258,0.764,0.699,1.688,1.325c0.924,0.625,1.532,1.156,1.824,1.593
		s0.438,0.925,0.438,1.466c0,0.49-0.122,0.971-0.368,1.443c-0.245,0.471-0.591,0.833-1.037,1.084
		c-0.446,0.251-0.94,0.377-1.48,0.377c-0.421,0-0.984-0.132-1.688-0.396c-0.188-0.069-0.317-0.104-0.386-0.104
		c-0.208,0-0.38,0.157-0.519,0.471h-0.311l-0.151-3.168h0.321c0.283,0.83,0.671,1.452,1.165,1.867c0.493,0.415,0.96,0.622,1.4,0.622
		c0.302,0,0.549-0.093,0.74-0.279c0.192-0.185,0.287-0.41,0.287-0.674c0-0.302-0.094-0.562-0.283-0.783
		c-0.189-0.22-0.609-0.553-1.263-0.999c-0.962-0.666-1.584-1.175-1.867-1.527c-0.415-0.515-0.622-1.084-0.622-1.707
		c0-0.678,0.234-1.293,0.703-1.843c0.468-0.55,1.145-0.825,2.031-0.825c0.478,0,0.94,0.116,1.386,0.349
		c0.17,0.094,0.308,0.141,0.415,0.141c0.113,0,0.204-0.024,0.273-0.071c0.069-0.047,0.179-0.181,0.33-0.4H204.14z"/>
	<path fill="#42964B" d="M217.33,63.427v0.349h-6.685v-0.349h0.425c0.371,0,0.669-0.066,0.896-0.198
		c0.163-0.089,0.289-0.239,0.377-0.453c0.069-0.151,0.104-0.547,0.104-1.188v-8.41c0-0.653-0.035-1.062-0.104-1.226
		c-0.069-0.163-0.209-0.306-0.419-0.429c-0.211-0.122-0.495-0.184-0.853-0.184h-0.425v-0.348h6.685v0.348h-0.424
		c-0.371,0-0.67,0.066-0.896,0.198c-0.164,0.088-0.292,0.239-0.387,0.453c-0.069,0.151-0.104,0.547-0.104,1.188v8.41
		c0,0.654,0.036,1.063,0.108,1.226c0.072,0.164,0.214,0.306,0.425,0.429c0.21,0.122,0.494,0.184,0.853,0.184H217.33z"/>
	<path fill="#42964B" d="M215.866,48.26c0,0.936-0.758,1.694-1.694,1.694c-0.936,0-1.695-0.758-1.695-1.694
		c0-0.936,0.758-1.694,1.695-1.694C215.108,46.566,215.866,47.325,215.866,48.26"/>
</g>
<linearGradient id="SVGID_1_" gradientUnits="userSpaceOnUse" x1="521.6954" y1="34.5" x2="524.4768" y2="34.5" gradientTransform="matrix(-1 0 0 1 652.017 0)">
	<stop  offset="0" style="stop-color:#FFFFFF;stop-opacity:0"/>
	<stop  offset="0.3834" style="stop-color:#D4D4D3;stop-opacity:0.3852"/>
	<stop  offset="0.7862" style="stop-color:#ACACAB;stop-opacity:0.7898"/>
	<stop  offset="0.9954" style="stop-color:#9D9D9C"/>
</linearGradient>
<path fill="url(#SVGID_1_)" d="M127.867,63.878V5.122C127.867,5.122,135.494,35.097,127.867,63.878z"/>
</svg>
